<mxfile host="Electron" agent="Mozilla/5.0 (Windows NT 10.0; Win64; x64) AppleWebKit/537.36 (KHTML, like Gecko) draw.io/24.7.17 Chrome/128.0.6613.36 Electron/32.0.1 Safari/537.36" version="24.7.17">
  <diagram id="C5RBs43oDa-KdzZeNtuy" name="Page-1">
    <mxGraphModel dx="1120" dy="524" grid="1" gridSize="10" guides="1" tooltips="1" connect="1" arrows="1" fold="1" page="1" pageScale="1" pageWidth="827" pageHeight="1169" math="0" shadow="0">
      <root>
        <mxCell id="WIyWlLk6GJQsqaUBKTNV-0" />
        <mxCell id="WIyWlLk6GJQsqaUBKTNV-1" parent="WIyWlLk6GJQsqaUBKTNV-0" />
        <mxCell id="4ullIRQm6d5SCKwyOztV-2" value="" style="edgeStyle=orthogonalEdgeStyle;rounded=0;orthogonalLoop=1;jettySize=auto;html=1;" edge="1" parent="WIyWlLk6GJQsqaUBKTNV-1" source="4ullIRQm6d5SCKwyOztV-0" target="4ullIRQm6d5SCKwyOztV-1">
          <mxGeometry relative="1" as="geometry" />
        </mxCell>
        <mxCell id="4ullIRQm6d5SCKwyOztV-0" value="" style="ellipse;whiteSpace=wrap;html=1;aspect=fixed;" vertex="1" parent="WIyWlLk6GJQsqaUBKTNV-1">
          <mxGeometry x="320" y="80" width="40" height="40" as="geometry" />
        </mxCell>
        <mxCell id="4ullIRQm6d5SCKwyOztV-4" value="" style="edgeStyle=orthogonalEdgeStyle;rounded=0;orthogonalLoop=1;jettySize=auto;html=1;" edge="1" parent="WIyWlLk6GJQsqaUBKTNV-1" source="4ullIRQm6d5SCKwyOztV-1" target="4ullIRQm6d5SCKwyOztV-3">
          <mxGeometry relative="1" as="geometry" />
        </mxCell>
        <mxCell id="4ullIRQm6d5SCKwyOztV-1" value="Danh sách giới thiệu" style="rounded=1;whiteSpace=wrap;html=1;" vertex="1" parent="WIyWlLk6GJQsqaUBKTNV-1">
          <mxGeometry x="300" y="150" width="80" height="40" as="geometry" />
        </mxCell>
        <mxCell id="4ullIRQm6d5SCKwyOztV-6" value="" style="edgeStyle=orthogonalEdgeStyle;rounded=0;orthogonalLoop=1;jettySize=auto;html=1;" edge="1" parent="WIyWlLk6GJQsqaUBKTNV-1" source="4ullIRQm6d5SCKwyOztV-3" target="4ullIRQm6d5SCKwyOztV-5">
          <mxGeometry relative="1" as="geometry" />
        </mxCell>
        <mxCell id="4ullIRQm6d5SCKwyOztV-3" value="Chọn xoá&amp;nbsp;&lt;div&gt;giới thiệu&lt;/div&gt;" style="rounded=1;whiteSpace=wrap;html=1;" vertex="1" parent="WIyWlLk6GJQsqaUBKTNV-1">
          <mxGeometry x="300" y="230" width="80" height="40" as="geometry" />
        </mxCell>
        <mxCell id="4ullIRQm6d5SCKwyOztV-8" style="edgeStyle=orthogonalEdgeStyle;rounded=0;orthogonalLoop=1;jettySize=auto;html=1;entryX=0.5;entryY=0;entryDx=0;entryDy=0;" edge="1" parent="WIyWlLk6GJQsqaUBKTNV-1" source="4ullIRQm6d5SCKwyOztV-5" target="4ullIRQm6d5SCKwyOztV-7">
          <mxGeometry relative="1" as="geometry" />
        </mxCell>
        <mxCell id="4ullIRQm6d5SCKwyOztV-9" value="Có" style="edgeLabel;html=1;align=center;verticalAlign=middle;resizable=0;points=[];" vertex="1" connectable="0" parent="4ullIRQm6d5SCKwyOztV-8">
          <mxGeometry x="-0.3028" relative="1" as="geometry">
            <mxPoint as="offset" />
          </mxGeometry>
        </mxCell>
        <mxCell id="4ullIRQm6d5SCKwyOztV-21" style="edgeStyle=orthogonalEdgeStyle;rounded=0;orthogonalLoop=1;jettySize=auto;html=1;entryX=0;entryY=0.5;entryDx=0;entryDy=0;exitX=0;exitY=0.5;exitDx=0;exitDy=0;" edge="1" parent="WIyWlLk6GJQsqaUBKTNV-1" source="4ullIRQm6d5SCKwyOztV-5" target="4ullIRQm6d5SCKwyOztV-19">
          <mxGeometry relative="1" as="geometry">
            <Array as="points">
              <mxPoint x="230" y="330" />
              <mxPoint x="230" y="700" />
            </Array>
          </mxGeometry>
        </mxCell>
        <mxCell id="4ullIRQm6d5SCKwyOztV-5" value="Xác nhận" style="rhombus;whiteSpace=wrap;html=1;" vertex="1" parent="WIyWlLk6GJQsqaUBKTNV-1">
          <mxGeometry x="305" y="300" width="70" height="60" as="geometry" />
        </mxCell>
        <mxCell id="4ullIRQm6d5SCKwyOztV-14" value="" style="edgeStyle=orthogonalEdgeStyle;rounded=0;orthogonalLoop=1;jettySize=auto;html=1;" edge="1" parent="WIyWlLk6GJQsqaUBKTNV-1" source="4ullIRQm6d5SCKwyOztV-7" target="4ullIRQm6d5SCKwyOztV-10">
          <mxGeometry relative="1" as="geometry" />
        </mxCell>
        <mxCell id="4ullIRQm6d5SCKwyOztV-7" value="Xoá" style="rounded=1;whiteSpace=wrap;html=1;" vertex="1" parent="WIyWlLk6GJQsqaUBKTNV-1">
          <mxGeometry x="414" y="360" width="80" height="40" as="geometry" />
        </mxCell>
        <mxCell id="4ullIRQm6d5SCKwyOztV-12" style="edgeStyle=orthogonalEdgeStyle;rounded=0;orthogonalLoop=1;jettySize=auto;html=1;entryX=0.5;entryY=0;entryDx=0;entryDy=0;" edge="1" parent="WIyWlLk6GJQsqaUBKTNV-1" source="4ullIRQm6d5SCKwyOztV-10" target="4ullIRQm6d5SCKwyOztV-11">
          <mxGeometry relative="1" as="geometry" />
        </mxCell>
        <mxCell id="4ullIRQm6d5SCKwyOztV-13" value="Thát bại" style="edgeLabel;html=1;align=center;verticalAlign=middle;resizable=0;points=[];" vertex="1" connectable="0" parent="4ullIRQm6d5SCKwyOztV-12">
          <mxGeometry x="-0.6038" y="1" relative="1" as="geometry">
            <mxPoint x="5" y="-9" as="offset" />
          </mxGeometry>
        </mxCell>
        <mxCell id="4ullIRQm6d5SCKwyOztV-16" style="edgeStyle=orthogonalEdgeStyle;rounded=0;orthogonalLoop=1;jettySize=auto;html=1;entryX=0.5;entryY=0;entryDx=0;entryDy=0;exitX=0;exitY=0.5;exitDx=0;exitDy=0;" edge="1" parent="WIyWlLk6GJQsqaUBKTNV-1" source="4ullIRQm6d5SCKwyOztV-10" target="4ullIRQm6d5SCKwyOztV-15">
          <mxGeometry relative="1" as="geometry" />
        </mxCell>
        <mxCell id="4ullIRQm6d5SCKwyOztV-17" value="Thành công" style="edgeLabel;html=1;align=center;verticalAlign=middle;resizable=0;points=[];" vertex="1" connectable="0" parent="4ullIRQm6d5SCKwyOztV-16">
          <mxGeometry x="-0.2593" y="-2" relative="1" as="geometry">
            <mxPoint x="-2" y="-8" as="offset" />
          </mxGeometry>
        </mxCell>
        <mxCell id="4ullIRQm6d5SCKwyOztV-10" value="" style="rhombus;whiteSpace=wrap;html=1;" vertex="1" parent="WIyWlLk6GJQsqaUBKTNV-1">
          <mxGeometry x="419" y="430" width="70" height="60" as="geometry" />
        </mxCell>
        <mxCell id="4ullIRQm6d5SCKwyOztV-23" style="edgeStyle=orthogonalEdgeStyle;rounded=0;orthogonalLoop=1;jettySize=auto;html=1;entryX=1;entryY=0.5;entryDx=0;entryDy=0;exitX=0.5;exitY=1;exitDx=0;exitDy=0;" edge="1" parent="WIyWlLk6GJQsqaUBKTNV-1" source="4ullIRQm6d5SCKwyOztV-11" target="4ullIRQm6d5SCKwyOztV-19">
          <mxGeometry relative="1" as="geometry" />
        </mxCell>
        <mxCell id="4ullIRQm6d5SCKwyOztV-11" value="Thông báo xoá thất bại" style="rounded=1;whiteSpace=wrap;html=1;" vertex="1" parent="WIyWlLk6GJQsqaUBKTNV-1">
          <mxGeometry x="500" y="520" width="80" height="40" as="geometry" />
        </mxCell>
        <mxCell id="4ullIRQm6d5SCKwyOztV-22" value="" style="edgeStyle=orthogonalEdgeStyle;rounded=0;orthogonalLoop=1;jettySize=auto;html=1;" edge="1" parent="WIyWlLk6GJQsqaUBKTNV-1" source="4ullIRQm6d5SCKwyOztV-15" target="4ullIRQm6d5SCKwyOztV-18">
          <mxGeometry relative="1" as="geometry" />
        </mxCell>
        <mxCell id="4ullIRQm6d5SCKwyOztV-15" value="Thông báo xoá thành công" style="rounded=1;whiteSpace=wrap;html=1;" vertex="1" parent="WIyWlLk6GJQsqaUBKTNV-1">
          <mxGeometry x="330" y="520" width="89" height="40" as="geometry" />
        </mxCell>
        <mxCell id="4ullIRQm6d5SCKwyOztV-24" style="edgeStyle=orthogonalEdgeStyle;rounded=0;orthogonalLoop=1;jettySize=auto;html=1;entryX=0.5;entryY=0;entryDx=0;entryDy=0;" edge="1" parent="WIyWlLk6GJQsqaUBKTNV-1" source="4ullIRQm6d5SCKwyOztV-18" target="4ullIRQm6d5SCKwyOztV-19">
          <mxGeometry relative="1" as="geometry" />
        </mxCell>
        <mxCell id="4ullIRQm6d5SCKwyOztV-18" value="Lấy dữ liệu mới" style="rounded=1;whiteSpace=wrap;html=1;" vertex="1" parent="WIyWlLk6GJQsqaUBKTNV-1">
          <mxGeometry x="330" y="600" width="89" height="40" as="geometry" />
        </mxCell>
        <mxCell id="4ullIRQm6d5SCKwyOztV-19" value="" style="ellipse;whiteSpace=wrap;html=1;aspect=fixed;" vertex="1" parent="WIyWlLk6GJQsqaUBKTNV-1">
          <mxGeometry x="320" y="680" width="40" height="40" as="geometry" />
        </mxCell>
      </root>
    </mxGraphModel>
  </diagram>
</mxfile>
